<?xml version="1.0" encoding="UTF-8" standalone="no"?>
<svg
   viewBox="23 6 40 40"
   version="1.1"
   id="svg28"
   sodipodi:docname="firebase.svg"
   inkscape:version="1.2 (dc2aedaf03, 2022-05-15)"
   xmlns:inkscape="http://www.inkscape.org/namespaces/inkscape"
   xmlns:sodipodi="http://sodipodi.sourceforge.net/DTD/sodipodi-0.dtd"
   xmlns="http://www.w3.org/2000/svg"
   xmlns:svg="http://www.w3.org/2000/svg">
  <sodipodi:namedview
     id="namedview30"
     pagecolor="#505050"
     bordercolor="#ffffff"
     borderopacity="1"
     inkscape:showpageshadow="0"
     inkscape:pageopacity="0"
     inkscape:pagecheckerboard="1"
     inkscape:deskcolor="#505050"
     showgrid="false"
     inkscape:zoom="1.7878788"
     inkscape:cx="200.79661"
     inkscape:cy="20.415254"
     inkscape:window-width="1920"
     inkscape:window-height="1019"
     inkscape:window-x="0"
     inkscape:window-y="29"
     inkscape:window-maximized="1"
     inkscape:current-layer="svg28" />
  <defs
     id="defs12">
    <linearGradient
       id="a"
       x1="24.289503"
       x2="140.66586"
       y1="24.096535"
       y2="108.74606"
       gradientTransform="scale(0.85158188,1.1742852)"
       gradientUnits="userSpaceOnUse">
      <stop
         offset="0%"
         stop-color="#fff"
         stop-opacity=".1"
         id="stop2" />
      <stop
         offset="14%"
         stop-color="#fff"
         stop-opacity=".08"
         id="stop4" />
      <stop
         offset="61%"
         stop-color="#fff"
         stop-opacity=".02"
         id="stop6" />
      <stop
         offset="100%"
         stop-color="#fff"
         stop-opacity="0"
         id="stop8" />
    </linearGradient>
    <path
       id="b"
       d="m 106.687,35.2742 c -0.186,-1.0977 -0.967,-2 -2.0244,-2.338 -1.0574,-0.338 -2.2148,-0.057 -3.0002,0.73 L 86.2473,49.166 74.1273,26.0205 C 73.614,25.0419 72.6023,24.4291 71.5,24.4291 c -1.1023,0 -2.114,0.6128 -2.6273,1.5914 L 62.245,38.6765 45.62,7.5726 C 45.017,6.4429 43.7612,5.8266 42.502,6.0429 41.2428,6.2592 40.2626,7.2589 40.0685,8.5256 L 24,111.701 66.9727,135.8664 c 2.6985,1.5113 5.985,1.5113 8.6836,0 L 119,111.701 106.687,35.274 Z" />
  </defs>
  <path
     fill="#111111"
     d="M 23.01552,37.557956 27.829746,6.7522728 c 0.05885,-0.377803 0.352677,-0.67563 0.729645,-0.739672 0.376969,-0.06404 0.752624,0.120205 0.932872,0.457394 l 4.978747,9.2861302 1.984515,-3.778488 c 0.153688,-0.292156 0.456678,-0.47509 0.786824,-0.47509 0.330146,0 0.633105,0.182934 0.786822,0.47509 L 51.464999,37.557896 H 23.01552 Z"
     id="path16"
     style="stroke-width:0.298423" />
  <path
     fill="#222222"
     d="M 39.647462,25.557961 34.468742,15.751709 23.01555,37.557956 Z"
     id="path18"
     style="stroke-width:0.298423" />
  <path
     fill="#000000"
     d="m 51.465208,37.557956 -3.68732,-22.817545 c -0.05571,-0.327669 -0.28956,-0.596846 -0.606247,-0.69831 -0.316687,-0.101464 -0.663276,-0.01701 -0.898463,0.217908 L 23.01555,37.557627 35.884582,44.774522 c 0.80813,0.451216 1.79233,0.451216 2.600461,0 l 12.980165,-7.216895 z"
     id="path20"
     style="stroke-width:0.298423" />
  <path
     fill="#ffffff"
     fill-opacity="0.2"
     d="m 47.777858,14.740411 c -0.05571,-0.327669 -0.28956,-0.596846 -0.606247,-0.69831 -0.316687,-0.101464 -0.663275,-0.01701 -0.898463,0.217908 l -4.616103,4.627831 -3.629873,-6.910352 c -0.153688,-0.292156 -0.456677,-0.47509 -0.786823,-0.47509 -0.330146,0 -0.633105,0.182934 -0.786823,0.47509 L 34.46901,15.755976 29.490025,6.4699948 c -0.180547,-0.337279 -0.556649,-0.521227 -0.934066,-0.456707 -0.377416,0.06452 -0.670258,0.363091 -0.728451,0.741193 L 23.01552,37.557956 H 23 l 0.01552,0.01779 0.126681,0.06222 23.124233,-23.150943 c 0.235068,-0.236202 0.582522,-0.321104 0.900044,-0.219938 0.317523,0.101166 0.551785,0.371388 0.606934,0.700012 l 3.656224,22.613035 0.03557,-0.02223 -3.687319,-22.817544 z M 23.057747,37.515729 27.829746,6.9723308 c 0.05813,-0.378103 0.351662,-0.676675 0.72875,-0.741195 0.377088,-0.06452 0.753221,0.11937 0.934065,0.456707 l 4.978449,9.2861322 1.984515,-3.778489 c 0.153688,-0.292156 0.456678,-0.475089 0.786824,-0.475089 0.330146,0 0.633105,0.182933 0.786822,0.475089 l 3.556223,6.763469 -18.527856,18.556774 z"
     id="path22"
     style="stroke-width:0.298423" />
  <path
     fill="#a52714"
     opacity="0.2"
     d="m 38.485043,44.557027 c -0.808131,0.451217 -1.792331,0.451217 -2.600461,0 l -12.837937,-7.196836 -0.03112,0.197854 12.869032,7.214684 c 0.80813,0.451217 1.792331,0.451217 2.600461,0 l 12.980165,-7.214684 -0.03334,-0.20448 -12.946801,7.203556 z"
     id="path24"
     style="stroke-width:0.298423" />
</svg>
