<?xml version="1.0" encoding="UTF-8" standalone="no"?>
<svg
   width="11.506215"
   height="9.9466238"
   viewBox="0 0 13.807458 9.9466238"
   fill="none"
   version="1.1"
   id="svg170"
   sodipodi:docname="mui.svg"
   inkscape:version="1.2 (dc2aedaf03, 2022-05-15)"
   xmlns:inkscape="http://www.inkscape.org/namespaces/inkscape"
   xmlns:sodipodi="http://sodipodi.sourceforge.net/DTD/sodipodi-0.dtd"
   xmlns="http://www.w3.org/2000/svg"
   xmlns:svg="http://www.w3.org/2000/svg">
  <defs
     id="defs174" />
  <sodipodi:namedview
     id="namedview172"
     pagecolor="#505050"
     bordercolor="#ffffff"
     borderopacity="1"
     inkscape:showpageshadow="0"
     inkscape:pageopacity="0"
     inkscape:pagecheckerboard="1"
     inkscape:deskcolor="#505050"
     showgrid="false"
     inkscape:zoom="7.375"
     inkscape:cx="5.8305085"
     inkscape:cy="6.440678"
     inkscape:window-width="1920"
     inkscape:window-height="1019"
     inkscape:window-x="0"
     inkscape:window-y="29"
     inkscape:window-maximized="1"
     inkscape:current-layer="svg170" />
  <path
     fill-rule="evenodd"
     clip-rule="evenodd"
     d="m 11.63771,6.744302 a 0.38355114,0.38355114 0 0 0 0.192542,-0.3313882 l 0.0069,-2.21961 a 0.38355114,0.38355114 0 0 1 0.192544,-0.3313882 l 1.203169,-0.6911591 a 0.38355114,0.38355114 0 0 1 0.57456,0.3325387 V 7.5386366 A 0.38355114,0.38355114 0 0 1 13.614881,7.8711754 L 9.0740186,10.479324 a 0.38355114,0.38355114 0 0 1 -0.381249,3.83e-4 L 5.1292299,8.441516 A 0.38355114,0.38355114 0 0 1 4.9359204,8.1085938 V 6.0738546 c 0,-0.00234 0.00269,-0.00382 0.00495,-0.00269 0.00191,0.00113 0.0046,0 0.0046,-0.00269 v -0.00234 c 0,-0.00156 7.783e-4,-0.00304 0.00233,-0.00382 L 7.8827416,4.3762302 c 0.0027,-0.00156 0.0016,-0.00573 -0.0016,-0.00573 a 0.00306841,0.00306841 0 0 1 -0.003,-0.00304 l 0.0057,-1.9948496 A 0.38355114,0.38355114 0 0 0 7.3085466,2.0389172 l -2.1812548,1.256897 a 0.38355114,0.38355114 0 0 1 -0.3827838,0 L 2.5563482,2.0358491 A 0.38355114,0.38355114 0 0 0 1.9814054,2.3680044 V 5.9733849 A 0.38355114,0.38355114 0 0 1 1.4076125,6.3066907 L 0.19331034,5.6124429 A 0.38355114,0.38355114 0 0 1 5.3878266e-7,5.2787536 L 0.01074054,-1.0229919 a 0.38355114,0.38355114 0 0 1 0.5745595,-0.3317717 L 4.744912,1.0343766 a 0.38355114,0.38355114 0 0 0 0.3820168,0 l 4.1584608,-2.3891402 a 0.38355114,0.38355114 0 0 1 0.57456,0.3329223 V 5.2814382 A 0.38355114,0.38355114 0 0 1 9.6677906,5.613977 l -2.177803,1.2542123 a 0.38355114,0.38355114 0 0 0 0.0016,0.665461 l 1.201282,0.6838717 a 0.38355114,0.38355114 0 0 0 0.380867,-7.784e-4 z m 0.251993,-5.6543104 a 0.38355114,0.38355114 0 0 0 0.580696,0.3287029 l 1.150653,-0.69039222 a 0.38355114,0.38355114 0 0 0 0.186407,-0.3287029 V -1.0072664 a 0.38355114,0.38355114 0 0 0 -0.580697,-0.3283197 l -1.150654,0.69039206 a 0.38355114,0.38355114 0 0 0 -0.186405,0.32870332 V 1.0903751 Z"
     fill="#ffffff"
     id="path168"
     style="fill:#000000;stroke-width:0.383551" />
</svg>
