<?xml version="1.0" encoding="UTF-8" standalone="no"?>
<svg
   viewBox="0 0 20.651344 12.316428"
   class="text-slate-900 dark:text-white w-auto h-5"
   version="1.1"
   id="svg4"
   sodipodi:docname="tailwind.svg"
   width="20.651344"
   height="12.316428"
   inkscape:version="1.2 (dc2aedaf03, 2022-05-15)"
   xmlns:inkscape="http://www.inkscape.org/namespaces/inkscape"
   xmlns:sodipodi="http://sodipodi.sourceforge.net/DTD/sodipodi-0.dtd"
   xmlns="http://www.w3.org/2000/svg"
   xmlns:svg="http://www.w3.org/2000/svg">
  <defs
     id="defs8" />
  <sodipodi:namedview
     id="namedview6"
     pagecolor="#505050"
     bordercolor="#ffffff"
     borderopacity="1"
     inkscape:showpageshadow="0"
     inkscape:pageopacity="0"
     inkscape:pagecheckerboard="1"
     inkscape:deskcolor="#505050"
     showgrid="false"
     inkscape:zoom="5.2620968"
     inkscape:cx="93.49885"
     inkscape:cy="6.7463601"
     inkscape:window-width="1920"
     inkscape:window-height="1019"
     inkscape:window-x="0"
     inkscape:window-y="29"
     inkscape:window-maximized="1"
     inkscape:current-layer="svg4" />
  <path
     fill-rule="evenodd"
     clip-rule="evenodd"
     d="M 10.325874,0 C 7.572119,0 5.851477,1.3685823 5.162735,4.1057463 c 1.032709,-1.368582 2.237401,-1.881699 3.614076,-1.539756 0.785458,0.195049 1.347135,0.761582 1.968298,1.388815 1.012475,1.021378 2.184389,2.203409 4.7435,2.203409 2.753351,0 4.474397,-1.368582 5.162735,-4.105341 -1.032304,1.368582 -2.236996,1.881699 -3.613672,1.539351 C 16.25181,3.3971753 15.690133,2.8306423 15.06897,2.2038133 14.056494,1.1816263 12.884985,0 10.325874,0 Z M 5.162735,6.1582143 C 2.409384,6.1582143 0.688338,7.5267963 0,10.26396 1.032709,8.8953783 2.237401,8.3822613 3.613672,8.7242043 c 0.785862,0.195049 1.347539,0.761582 1.968702,1.3888147 1.012476,1.021379 2.183985,2.203409 4.7435,2.203409 2.753351,0 4.474397,-1.368177 5.162735,-4.1053407 C 14.4559,9.5796693 13.251208,10.092786 11.874533,9.7508433 11.089075,9.5553893 10.527398,8.9888563 9.906235,8.3620283 8.89376,7.3406493 7.721846,6.1582143 5.162735,6.1582143 Z"
     fill="#38bdf8"
     id="path2"
     style="fill:#000000;stroke-width:0.404666" />
</svg>
